#!OML:ASF I:\Actors\actors\Patient Classification 1\Patient 1\Session 1\Subject1.ASF
:FULLY-SPECIFIED
:DEGREES
193
root 0.632576 17.4766 8.99562 8.12814 -2.19255 -8.63479
lowerback -0.139459 1.94043 5.11726
upperback -6.95002 2.93294 2.20675
thorax -7.05238 1.22216 -0.718429
lowerneck -10.1976 -4.30936 -2.38166
upperneck 26.9858 -7.18353 5.46936
head 10.617 -2.92366 1.48438
rclavicle 2.37548e-014 2.3059e-014
rhumerus -20.4623 20.2222 -98.3226
rradius 69.7298
rwrist -22.3351
rhand 7.39233 -39.0096
rfingers 7.12502
rthumb 32.6491 -66.0832
lclavicle 2.37548e-014 2.3059e-014
lhumerus -43.5983 -13.6117 101.296
lradius 90.1163
lwrist -4.52986
lhand 0.174423 -5.35943
lfingers 7.12502
lthumb 25.7574 22.9172
rfemur -6.17077 21.0538 24.9583
rtibia 6.96381
rfoot -11.9349 -20.6729
rtoes 2.03049
lfemur 4.82665 -42.2395 -12.4063
ltibia -3.62582
lfoot -20.8659 51.2389
ltoes 11.8991
194
root 0.625522 17.479 9.00067 8.06304 -1.56524 -8.64605
lowerback -0.244904 1.74303 5.05604
upperback -6.80776 2.65745 2.31542
thorax -6.85814 1.09964 -0.551316
lowerneck -10.2228 -4.31712 -2.24686
upperneck 26.7495 -7.15822 5.30093
head 10.5205 -2.92205 1.40328
rclavicle 2.60408e-014 -1.21259e-014
rhumerus -20.882 20.9687 -98.613
rradius 70.8819
rwrist -23.4641
rhand 7.476 -39.3184
rfingers 7.12502
rthumb 32.7287 -66.3754
lclavicle 2.60408e-014 -1.21259e-014
lhumerus -41.4137 -14.5547 101.606
lradius 92.018
lwrist -4.96215
lhand -2.03551 -5.95068
lfingers 7.12502
lthumb 23.6393 22.616
rfemur -6.08868 20.7549 25.0671
rtibia 7.04469
rfoot -12.1285 -20.9986
rtoes 2.27865
lfemur 4.42717 -41.8213 -12.0305
ltibia -3.5089
lfoot -19.7434 50.4116
ltoes 10.6469
195
root 0.617312 17.4811 9.00216 7.9961 -0.971702 -8.6938
lowerback -0.120894 1.56819 5.09476
upperback -6.82877 2.43883 2.36948
thorax -6.96392 0.988486 -0.508669
lowerneck -10.239 -4.34828 -2.28267
upperneck 26.8092 -7.19397 5.28252
head 10.548 -2.94231 1.39811
rclavicle 1.28962e-014 2.48481e-014
rhumerus -21.3988 21.3907 -99.0464
rradius 71.7375
rwrist -24.0688
rhand 7.94134 -38.7143
rfingers 7.12502
rthumb 33.1713 -65.6782
lclavicle 1.28962e-014 2.48481e-014
lhumerus -39.3542 -15.7895 101.93
lradius 93.3751
lwrist -6.58642
lhand -5.72528 -7.07795
lfingers 7.12502
lthumb 20.0964 21.9027
rfemur -6.05439 20.5468 25.2162
rtibia 7.19079
rfoot -12.3362 -21.3703
rtoes 2.56575
lfemur 4.07323 -41.538 -11.6402
ltibia -3.42121
lfoot -18.8276 49.7317
ltoes 9.58001
196
root 0.609044 17.4824 9.0036 7.92887 -0.440329 -8.72415
lowerback 0.320164 1.441 5.19876
upperback -7.0939 2.31928 2.33281
thorax -7.50898 0.906272 -0.611507
lowerneck -10.0034 -4.40216 -2.24247
upperneck 26.9931 -7.29327 5.27858
head 10.573 -2.98536 1.38344
rclavicle 1.30949e-014 -9.74045e-015
rhumerus -22.219 21.4453 -99.7272
rradius 72.5596
rwrist -24.9743
rhand 7.18421 -36.4783
rfingers 7.12502
rthumb 32.451 -63.5927
lclavicle 1.30949e-014 -9.74045e-015
lhumerus -37.6396 -17.4541 102.295
lradius 94.2753
lwrist -8.88697
lhand -10.339 -8.08815
lfingers 7.12502
lthumb 15.6572 21.2983
rfemur -6.02245 20.3451 25.3383
rtibia 7.33832
rfoot -12.5162 -21.6814
rtoes 2.61126
lfemur 3.88949 -41.5662 -11.4055
ltibia -3.40683
lfoot -18.1922 49.3747
ltoes 8.76052
197
root 0.594868 17.4851 9.0059 7.81216 -0.294532 -8.80428
lowerback 0.0839987 1.32778 4.88019
upperback -6.79594 2.13572 2.58976
thorax -7.07552 0.857139 -0.147455
lowerneck -10.2171 -4.3633 -2.39223
upperneck 26.8737 -7.18793 5.25164
head 10.5701 -2.95289 1.40713
rclavicle -1.0138e-014 -7.69297e-014
rhumerus -22.1669 22.2053 -100.068
rradius 73.272
rwrist -26.8973
rhand 11.5209 -38.6282
rfingers 7.12502
rthumb 36.5674 -64.8032
lclavicle -1.0138e-014 -7.69297e-014
lhumerus -34.7592 -19.1484 102.349
lradius 94.4584
lwrist -11.3957
lhand -15.1728 -9.03088
lfingers 7.12502
lthumb 10.9981 20.661
rfemur -5.9444 20.3896 25.5604
rtibia 7.53999
rfoot -12.6683 -21.8556
rtoes 2.65502
lfemur 4.20348 -41.8741 -11.4488
ltibia -3.57513
lfoot -18.2668 49.5667
ltoes 8.69311
198
root 0.569184 17.4933 9.00754 7.55441 -0.888947 -8.92067
lowerback 0.525345 1.51481 4.50879
upperback -6.77162 2.41076 2.73932
thorax -7.31448 1.01625 0.187033
lowerneck -10.2448 -4.39151 -2.6213
upperneck 26.9985 -7.22269 5.37562
head 10.6379 -2.97424 1.48557
rclavicle -1.03989e-014 -7.7526e-015
rhumerus -22.8214 22.7706 -100.869
rradius 74.1571
rwrist -30.3721
rhand 7.76293 -35.8714
rfingers 7.12502
rthumb 33.0016 -62.8712
lclavicle -1.03989e-014 -7.7526e-015
lhumerus -32.419 -21.3172 102.377
lradius 94.0953
lwrist -14.0983
lhand -19.6694 -10.1912
lfingers 7.12502
lthumb 6.659 19.6841
rfemur -5.793 20.7578 25.9002
rtibia 7.91174
rfoot -12.7337 -21.6423
rtoes 2.59338
lfemur 5.39594 -42.4243 -12.0478
ltibia -4.02166
lfoot -19.392 50.5488
ltoes 9.79252
199
root 0.564325 17.4938 9.01045 7.51325 -0.586352 -8.86313
lowerback 0.625244 1.43132 4.43196
upperback -6.83031 2.30835 2.77808
thorax -7.44326 0.969072 0.274323
lowerneck -10.2471 -4.42029 -2.83811
upperneck 27.1243 -7.25623 5.48193
head 10.7 -2.99644 1.55658
rclavicle -3.926e-015 2.10712e-014
rhumerus -23.2996 22.7022 -101.478
rradius 75.0883
rwrist -31.7073
rhand 6.08921 -34.0375
rfingers 7.12502
rthumb 31.4083 -61.3603
lclavicle -3.926e-015 2.10712e-014
lhumerus -30.1077 -23.6852 102.25
lradius 93.2805
lwrist -16.7928
lhand -22.6091 -11.0266
lfingers 7.12502
lthumb 3.82057 18.9189
rfemur -5.76574 20.6093 25.8809
rtibia 7.98699
rfoot -12.8378 -21.8092
rtoes 2.65923
lfemur 5.44104 -42.6888 -12.1109
ltibia -4.09984
lfoot -19.0871 50.5819
ltoes 9.30686
200
root 0.559193 17.4959 9.01414 7.50974 -0.470388 -8.85017
lowerback 0.676992 1.4108 4.31995
upperback -6.88542 2.28738 2.85389
thorax -7.54075 0.966505 0.416086
lowerneck -10.2589 -4.47486 -3.03346
upperneck 27.2481 -7.31214 5.51989
head 10.761 -3.03459 1.59644
rclavicle 2.70844e-015 -1.3418e-014
rhumerus -23.6814 22.4531 -102.042
rradius 75.8929
rwrist -32.6378
rhand 5.72709 -33.6364
rfingers 7.12502
rthumb 31.0632 -61.0258
lclavicle 2.70844e-015 -1.3418e-014
lhumerus -27.8424 -26.2172 101.972
lradius 92.0595
lwrist -19.5452
lhand -23.5647 -10.9202
lfingers 7.12502
lthumb 2.89778 19.0399
rfemur -5.79945 20.4899 25.8851
rtibia 8.08472
rfoot -12.8947 -21.8218
rtoes 2.52804
lfemur 5.58366 -43.0195 -12.2036
ltibia -4.21475
lfoot -19.0351 50.8274
ltoes 8.98519
201
root 0.575274 17.4874 9.02194 7.80963 0.683888 -8.83409
lowerback 0.249227 1.08718 4.70273
upperback -7.02358 1.84884 2.86266
thorax -7.44322 0.727505 0.251249
lowerneck -10.3249 -4.55061 -3.24031
upperneck 27.3281 -7.39789 5.57816
head 10.8196 -3.08492 1.64023
rclavicle -3.00662e-015 -1.3418e-014
rhumerus -23.9255 22.1281 -102.484
rradius 76.6468
rwrist -33.3637
rhand 5.63249 -33.6507
rfingers 7.12502
rthumb 30.9731 -61.0573
lclavicle -3.00662e-015 -1.3418e-014
lhumerus -25.6224 -28.8652 101.527
lradius 90.5065
lwrist -22.5097
lhand -23.0539 -9.8642
lfingers 7.12502
lthumb 3.39102 20.0886
rfemur -5.95879 20.081 25.7535
rtibia 7.8099
rfoot -13.0705 -22.4936
rtoes 3.09643
lfemur 4.283 -42.8612 -11.3092
ltibia -3.9315
lfoot -17.4856 49.8438
ltoes 7.21268
202
root 0.574387 17.4886 9.02975 7.87756 0.768881 -8.90344
lowerback 0.183875 1.08313 4.70565
upperback -7.07568 1.84879 2.97144
thorax -7.46603 0.730697 0.365154
lowerneck -10.39 -4.61122 -3.42579
upperneck 27.3676 -7.46492 5.6414
head 10.8616 -3.12478 1.6844
rclavicle -1.74682e-014 2.92213e-014
rhumerus -24.1244 21.8997 -102.838
rradius 77.3822
rwrist -34.1497
rhand 5.46858 -33.655
rfingers 7.12502
rthumb 30.8168 -61.0913
lclavicle -1.74682e-014 2.92213e-014
lhumerus -23.4336 -31.4279 100.912
lradius 88.66
lwrist -25.1188
lhand -21.1623 -8.61544
lfingers 7.12502
lthumb 5.21764 21.3003
rfemur -5.9835 20.1228 25.8339
rtibia 7.78237
rfoot -13.1268 -22.612
rtoes 3.28612
lfemur 4.26536 -42.9631 -11.1826
ltibia -4.02719
lfoot -17.47 49.9026
ltoes 7.2362
203
root 0.557291 17.4991 9.03665 7.68412 -0.103142 -8.96046
lowerback 0.482389 1.34361 4.25381
upperback -7.0298 2.2081 3.14382
thorax -7.60144 0.941046 0.767308
lowerneck -10.3953 -4.64451 -3.48517
upperneck 27.3156 -7.48542 5.60215
head 10.8449 -3.1456 1.67719
rclavicle 7.66563e-015 5.77966e-014
rhumerus -24.3128 21.7732 -103.185
rradius 78.0242
rwrist -34.978
rhand 5.16833 -33.57
rfingers 7.12502
rthumb 30.5305 -61.0599
lclavicle 7.66563e-015 5.77966e-014
lhumerus -21.278 -33.7843 100.164
lradius 86.6434
lwrist -26.7455
lhand -18.0369 -7.77576
lfingers 7.12502
lthumb 8.23468 22.0438
rfemur -5.83238 20.527 26.0113
rtibia 7.97566
rfoot -13.0592 -22.2093
rtoes 3.09377
lfemur 5.49238 -43.4025 -11.9292
ltibia -4.44571
lfoot -18.8971 50.9621
ltoes 8.79594
204
root 0.562043 17.4968 9.04415 7.75661 0.0164491 -8.92376
lowerback 0.362052 1.28811 4.21923
upperback -7.06634 2.13052 3.21829
thorax -7.57648 0.908046 0.872706
lowerneck -10.3483 -4.66277 -3.4738
upperneck 27.146 -7.4765 5.50685
head 10.7666 -3.15571 1.64237
rclavicle 1.03679e-014 -2.5842e-014
rhumerus -24.4506 21.7469 -103.472
rradius 78.6529
rwrist -35.6885
rhand 4.04739 -33.5181
rfingers 7.12502
rthumb 29.4609 -61.2016
lclavicle 1.03679e-014 -2.5842e-014
lhumerus -19.2921 -35.9822 99.3642
lradius 84.6834
lwrist -27.5242
lhand -14.6573 -7.05373
lfingers 7.12502
lthumb 11.4953 22.6111
rfemur -5.84681 20.5127 25.9272
rtibia 7.88836
rfoot -13.0686 -22.3022
rtoes 3.20778
lfemur 5.35986 -43.4761 -11.8866
ltibia -4.44243
lfoot -18.9066 50.917
ltoes 8.77239
205
root 0.576002 17.4917 9.05222 7.87845 0.482235 -8.88468
lowerback 0.146 1.11306 4.37991
upperback -7.11372 1.89395 3.28009
thorax -7.50398 0.784302 0.868274
lowerneck -10.4256 -4.66388 -3.56557
upperneck 27.1105 -7.45354 5.50152
head 10.7708 -3.15415 1.65693
rclavicle -1.86723e-014 -5.35981e-014
rhumerus -24.522 21.8952 -103.63
rradius 79.329
rwrist -36.2073
rhand 2.4829 -33.5732
rfingers 7.12502
rthumb 27.9663 -61.5101
lclavicle -1.86723e-014 -5.35981e-014
lhumerus -17.5619 -38.0831 98.5427
lradius 82.888
lwrist -27.724
lhand -12.0758 -6.3259
lfingers 7.12502
lthumb 13.9839 23.1838
rfemur -5.86126 20.3474 25.8126
rtibia 7.70903
rfoot -13.1184 -22.5662
rtoes 3.28081
lfemur 4.8096 -43.4687 -11.5916
ltibia -4.25147
lfoot -18.5255 50.5107
ltoes 8.35503
